<svg width="76" height="73" xmlns="http://www.w3.org/2000/svg" xmlns:xlink="http://www.w3.org/1999/xlink" xml:space="preserve" overflow="hidden"><defs><clipPath id="clip0"><rect x="0" y="0" width="76" height="73"/></clipPath></defs><g clip-path="url(#clip0)"><path d="M4.26493 6.84211 4.26493 20.5042C4.26493 21.9527 5.43622 23.124 6.88469 23.124L35.3444 23.124C36.7929 23.124 37.9642 21.9527 37.9642 20.5042L37.9642 6.84211C37.9642 5.39364 36.7929 4.22234 35.3444 4.22234L6.88469 4.22234C5.43622 4.22234 4.26493 5.40258 4.26493 6.84211ZM6.10681 6.84211C6.10681 6.41293 6.45551 6.06423 6.88469 6.06423L35.3444 6.06423C35.7736 6.06423 36.1223 6.41293 36.1223 6.84211L36.1223 20.5042C36.1223 20.9334 35.7736 21.2821 35.3444 21.2821L6.88469 21.2821C6.45551 21.2821 6.10681 20.9334 6.10681 20.5042L6.10681 6.84211Z"/><path d="M16.5054 29.4901C16.5054 27.9075 15.2179 26.611 13.6263 26.611 12.0437 26.611 10.7473 27.8986 10.7473 29.4901 10.7473 30.7598 11.5788 31.8416 12.7322 32.2261 11.5877 32.6016 10.7473 33.6835 10.7473 34.9621 10.7473 36.2318 11.5788 37.3136 12.7322 37.6981 11.5877 38.0736 10.7473 39.1555 10.7473 40.4341 10.7473 41.7038 11.5788 42.7856 12.7322 43.1701 11.5877 43.5456 10.7473 44.6275 10.7473 45.9061 10.7473 47.4887 12.0348 48.7852 13.6263 48.7852 15.2089 48.7852 16.5054 47.4976 16.5054 45.9061 16.5054 44.6365 15.6739 43.5456 14.5205 43.1701 15.6649 42.7946 16.5054 41.7127 16.5054 40.4341 16.5054 39.1645 15.6739 38.0826 14.5205 37.6981 15.6649 37.3226 16.5054 36.2407 16.5054 34.9621 16.5054 33.6925 15.6739 32.6106 14.5205 32.2261 15.6739 31.8506 16.5054 30.7687 16.5054 29.4901ZM14.6635 45.8882C14.6635 46.4605 14.1986 46.9254 13.6263 46.9254 13.0541 46.9254 12.5892 46.4605 12.5892 45.8882 12.5892 45.316 13.0541 44.851 13.6263 44.851 14.1986 44.851 14.6635 45.316 14.6635 45.8882ZM14.6635 40.4252C14.6635 40.9974 14.1986 41.4623 13.6263 41.4623 13.0541 41.4623 12.5892 40.9974 12.5892 40.4252 12.5892 39.8529 13.0541 39.388 13.6263 39.388 14.1986 39.388 14.6635 39.8529 14.6635 40.4252ZM14.6635 34.9621C14.6635 35.5343 14.1986 35.9993 13.6263 35.9993 13.0541 35.9993 12.5892 35.5343 12.5892 34.9621 12.5892 34.3899 13.0541 33.9249 13.6263 33.9249 14.1986 33.9249 14.6635 34.3899 14.6635 34.9621ZM13.6263 30.5273C13.0541 30.5273 12.5892 30.0623 12.5892 29.4901 12.5892 28.9179 13.0541 28.4529 13.6263 28.4529 14.1986 28.4529 14.6635 28.9179 14.6635 29.4901 14.6635 30.0623 14.1986 30.5273 13.6263 30.5273Z"/><path d="M23.408 29.4901C23.408 27.9075 22.1205 26.611 20.5289 26.611 18.9463 26.611 17.6499 27.8986 17.6499 29.4901 17.6499 30.7598 18.4814 31.8416 19.6259 32.2261 18.4814 32.6016 17.6499 33.6835 17.6499 34.9621 17.6499 36.2318 18.4814 37.3136 19.6259 37.6981 18.4814 38.0736 17.6499 39.1555 17.6499 40.4341 17.6499 41.7038 18.4814 42.7856 19.6348 43.1701 18.4903 43.5456 17.6499 44.6275 17.6499 45.9061 17.6499 47.4887 18.9374 48.7852 20.5289 48.7852 22.1115 48.7852 23.408 47.4976 23.408 45.9061 23.408 44.6365 22.5765 43.5456 21.423 43.1701 22.5675 42.7946 23.408 41.7127 23.408 40.4341 23.408 39.1645 22.5765 38.0826 21.423 37.6981 22.5675 37.3226 23.408 36.2407 23.408 34.9621 23.408 33.6925 22.5765 32.6106 21.423 32.2261 22.5765 31.8506 23.408 30.7687 23.408 29.4901ZM21.5661 45.8882C21.5661 46.4605 21.1012 46.9254 20.5289 46.9254 19.9567 46.9254 19.4917 46.4605 19.4917 45.8882 19.4917 45.316 19.9567 44.851 20.5289 44.851 21.1012 44.851 21.5661 45.316 21.5661 45.8882ZM21.5661 40.4252C21.5661 40.9974 21.1012 41.4623 20.5289 41.4623 19.9567 41.4623 19.4917 40.9974 19.4917 40.4252 19.4917 39.8529 19.9567 39.388 20.5289 39.388 21.1012 39.388 21.5661 39.8529 21.5661 40.4252ZM21.5661 34.9621C21.5661 35.5343 21.1012 35.9993 20.5289 35.9993 19.9567 35.9993 19.4917 35.5343 19.4917 34.9621 19.4917 34.3899 19.9567 33.9249 20.5289 33.9249 21.1012 33.9249 21.5661 34.3899 21.5661 34.9621ZM20.5289 30.5273C19.9567 30.5273 19.4917 30.0623 19.4917 29.4901 19.4917 28.9179 19.9567 28.4529 20.5289 28.4529 21.1012 28.4529 21.5661 28.9179 21.5661 29.4901 21.5661 30.0623 21.1012 30.5273 20.5289 30.5273Z"/><path d="M30.3106 29.4901C30.3106 27.9075 29.023 26.611 27.4315 26.611 25.84 26.611 24.5525 27.8986 24.5525 29.4901 24.5525 30.7598 25.384 31.8416 26.5374 32.2261 25.3929 32.6016 24.5525 33.6835 24.5525 34.9621 24.5525 36.2318 25.384 37.3136 26.5374 37.6981 25.3929 38.0736 24.5525 39.1555 24.5525 40.4341 24.5525 41.7038 25.384 42.7946 26.5374 43.1701 25.3929 43.5456 24.5525 44.6275 24.5525 45.9061 24.5525 47.4887 25.84 48.7852 27.4315 48.7852 29.023 48.7852 30.3106 47.4976 30.3106 45.9061 30.3106 44.6365 29.479 43.5456 28.3256 43.1701 29.4701 42.7946 30.3106 41.7127 30.3106 40.4341 30.3106 39.1645 29.479 38.0826 28.3256 37.6981 29.4701 37.3226 30.3106 36.2407 30.3106 34.9621 30.3106 33.6925 29.479 32.6106 28.3256 32.2261 29.4701 31.8506 30.3106 30.7687 30.3106 29.4901ZM28.4687 45.8882C28.4687 46.4605 28.0037 46.9254 27.4315 46.9254 26.8593 46.9254 26.3943 46.4605 26.3943 45.8882 26.3943 45.316 26.8593 44.851 27.4315 44.851 28.0037 44.851 28.4687 45.316 28.4687 45.8882ZM28.4687 40.4252C28.4687 40.9974 28.0037 41.4623 27.4315 41.4623 26.8593 41.4623 26.3943 40.9974 26.3943 40.4252 26.3943 39.8529 26.8593 39.388 27.4315 39.388 28.0037 39.388 28.4687 39.8529 28.4687 40.4252ZM28.4687 34.9621C28.4687 35.5343 28.0037 35.9993 27.4315 35.9993 26.8593 35.9993 26.3943 35.5343 26.3943 34.9621 26.3943 34.3899 26.8593 33.9249 27.4315 33.9249 28.0037 33.9249 28.4687 34.3899 28.4687 34.9621ZM27.4315 30.5273C26.8593 30.5273 26.3943 30.0623 26.3943 29.4901 26.3943 28.9179 26.8593 28.4529 27.4315 28.4529 28.0037 28.4529 28.4687 28.9179 28.4687 29.4901 28.4687 30.0623 28.0037 30.5273 27.4315 30.5273Z"/><path d="M37.2042 29.4901C37.2042 27.9075 35.9167 26.611 34.3252 26.611 32.7336 26.611 31.4461 27.8986 31.4461 29.4901 31.4461 30.7598 32.2776 31.8416 33.431 32.2261 32.2866 32.6016 31.4461 33.6835 31.4461 34.9621 31.4461 36.2318 32.2776 37.3136 33.431 37.6981 32.2866 38.0736 31.4461 39.1555 31.4461 40.4341 31.4461 41.7038 32.2776 42.7946 33.431 43.1701 32.2866 43.5456 31.4461 44.6275 31.4461 45.9061 31.4461 47.4887 32.7336 48.7852 34.3252 48.7852 35.9167 48.7852 37.2042 47.4976 37.2042 45.9061 37.2042 44.6365 36.3727 43.5456 35.2193 43.1701 36.3637 42.7946 37.2042 41.7127 37.2042 40.4341 37.2042 39.1645 36.3727 38.0826 35.2193 37.6981 36.3637 37.3226 37.2042 36.2407 37.2042 34.9621 37.2042 33.6925 36.3727 32.6106 35.2193 32.2261 36.3727 31.8506 37.2042 30.7687 37.2042 29.4901ZM35.3713 45.8882C35.3713 46.4605 34.9063 46.9254 34.3341 46.9254 33.7619 46.9254 33.2969 46.4605 33.2969 45.8882 33.2969 45.316 33.7619 44.851 34.3341 44.851 34.9063 44.851 35.3713 45.316 35.3713 45.8882ZM35.3713 40.4252C35.3713 40.9974 34.9063 41.4623 34.3341 41.4623 33.7619 41.4623 33.2969 40.9974 33.2969 40.4252 33.2969 39.8529 33.7619 39.388 34.3341 39.388 34.9063 39.388 35.3713 39.8529 35.3713 40.4252ZM35.3713 34.9621C35.3713 35.5343 34.9063 35.9993 34.3341 35.9993 33.7619 35.9993 33.2969 35.5343 33.2969 34.9621 33.2969 34.3899 33.7619 33.9249 34.3341 33.9249 34.9063 33.9249 35.3713 34.3899 35.3713 34.9621ZM34.3341 30.5273C33.7619 30.5273 33.2969 30.0623 33.2969 29.4901 33.2969 28.9179 33.7619 28.4529 34.3341 28.4529 34.9063 28.4529 35.3713 28.9179 35.3713 29.4901 35.3713 30.0623 34.9063 30.5273 34.3341 30.5273Z"/><path d="M47.4419 6.19834 66.6386 6.19834C67.1482 6.19834 67.5595 5.78705 67.5595 5.2774 67.5595 4.76776 67.1482 4.35646 66.6386 4.35646L47.4419 4.35646C46.9322 4.35646 46.5209 4.76776 46.5209 5.2774 46.5209 5.78705 46.9322 6.19834 47.4419 6.19834Z"/><path d="M47.4419 8.59458 66.6386 8.59458C67.1482 8.59458 67.5595 8.18328 67.5595 7.67364 67.5595 7.16399 67.1482 6.7527 66.6386 6.7527L47.4419 6.7527C46.9322 6.7527 46.5209 7.16399 46.5209 7.67364 46.5209 8.18328 46.9322 8.59458 47.4419 8.59458Z"/><path d="M47.4419 10.9998 66.6386 10.9998C67.1482 10.9998 67.5595 10.5885 67.5595 10.0788 67.5595 9.56917 67.1482 9.15787 66.6386 9.15787L47.4419 9.15787C46.9322 9.15787 46.5209 9.56917 46.5209 10.0788 46.5209 10.5885 46.9322 10.9998 47.4419 10.9998Z"/><path d="M66.6386 13.396C67.1482 13.396 67.5595 12.9847 67.5595 12.475 67.5595 11.9654 67.1482 11.5541 66.6386 11.5541L47.4419 11.5541C46.9322 11.5541 46.5209 11.9654 46.5209 12.475 46.5209 12.9847 46.9322 13.396 47.4419 13.396L66.6386 13.396Z"/><path d="M74.8823 47.6765C74.8823 47.6318 74.8823 47.587 74.8823 47.5513L74.8823 5.77811C74.8823 2.60399 72.2983 0.0289335 69.1331 0.0289335L5.74916 0.0289335C2.57504 0.0289335-1.43051e-05 2.61293-1.43051e-05 5.77811L-1.43051e-05 47.5423C-1.43051e-05 50.7165 2.58399 53.2915 5.74916 53.2915L49.3106 53.2915 49.3106 61.2134C49.3106 61.3475 49.3106 61.4906 49.3195 61.6247L49.5609 63.6543C49.7129 64.3875 49.9364 65.0939 50.2315 65.7913 50.8216 67.195 51.671 68.4468 52.7529 69.5287 53.8348 70.6106 55.0866 71.46 56.4903 72.0501 57.9388 72.667 59.4767 72.971 61.0682 72.971L64.2423 72.971C65.8249 72.971 67.3717 72.6581 68.8202 72.0501 70.224 71.46 71.4757 70.6106 72.5576 69.5287 73.6395 68.4468 74.4889 67.195 75.079 65.7913 75.696 64.3428 76 62.8049 76 61.2134L76 50.1532C76 49.268 75.6513 48.4365 75.0343 47.8106 74.9807 47.7659 74.936 47.7122 74.8823 47.6765ZM40.6108 51.4586 5.74916 51.4586C3.59434 51.4586 1.83293 49.7061 1.83293 47.5423L1.83293 5.77811C1.83293 3.62329 3.5854 1.86187 5.74916 1.86187L40.6108 1.86187 40.6108 51.4586ZM49.3106 50.1621 49.3106 51.4496 42.4527 51.4496 42.4527 1.86187 69.1331 1.86187C71.288 1.86187 73.0494 3.61434 73.0494 5.77811L73.0494 46.8628C72.9332 46.8539 72.808 46.8449 72.6917 46.8449 72.1374 46.8449 71.6188 46.979 71.1539 47.2205 70.7962 45.7541 69.5087 44.6543 67.9529 44.5828L67.9529 18.8948C67.9529 17.1513 66.5313 15.7386 64.7967 15.7386L50.1868 15.7386C48.4433 15.7386 47.0306 17.1602 47.0306 18.8948L47.0306 45.5216C47.0306 47.0953 48.184 48.4007 49.695 48.6421 49.4447 49.0892 49.3106 49.6167 49.3106 50.1621ZM50.1868 46.836C49.4626 46.836 48.8635 46.2459 48.8635 45.5127L48.8635 18.8948C48.8635 18.1706 49.4536 17.5715 50.1868 17.5715L64.7967 17.5715C65.5209 17.5715 66.12 18.1616 66.12 18.8948L66.12 45.012C65.9859 45.0835 65.8517 45.1729 65.7266 45.2623L65.6908 45.2623C65.5299 44.86 65.2795 44.4845 64.9666 44.1626 64.3407 43.5367 63.5091 43.1969 62.624 43.1969 61.9892 43.1969 61.399 43.3757 60.8983 43.6797L60.8983 42.9823 63.7684 42.9823C64.8861 42.9823 65.7892 42.0793 65.7892 40.9616L65.7892 32.9146C65.7892 28.3367 62.0696 24.6172 57.4917 24.6172 52.9139 24.6172 49.1943 28.3367 49.1943 32.9146L49.1943 40.9616C49.1943 42.0793 50.0974 42.9823 51.215 42.9823L54.264 42.9823 54.264 46.827 50.1868 46.827ZM60.8447 29.0699 54.1299 29.0699C52.8244 29.0699 51.7694 30.1249 51.7694 31.4303L51.7694 38.2793C51.7694 39.5847 52.8244 40.6397 54.1299 40.6397L54.264 40.6397 54.264 41.1494 51.215 41.1494C51.1167 41.1494 51.0362 41.0689 51.0362 40.9706L51.0362 32.9235C51.0362 29.3649 53.9332 26.468 57.4917 26.468 61.0503 26.468 63.9473 29.3649 63.9473 32.9235L63.9473 40.9706C63.9473 41.0689 63.8668 41.1494 63.7684 41.1494L60.8894 41.1494 60.8894 40.6397C62.168 40.6219 63.2052 39.5668 63.2052 38.2793L63.2052 31.4303C63.2052 30.1249 62.1501 29.0699 60.8447 29.0699ZM54.1299 38.7979C53.8437 38.7979 53.6113 38.5654 53.6113 38.2793L53.6113 31.4303C53.6113 31.1442 53.8437 30.9117 54.1299 30.9117L60.8447 30.9117C61.1308 30.9117 61.3633 31.1442 61.3633 31.4303L61.3633 38.2793C61.3633 38.5475 61.1487 38.78 60.8894 38.7979L60.8894 38.1094 60.8894 36.4285C60.8894 35.9635 60.791 35.5165 60.6122 35.1052 60.4513 34.7296 60.2099 34.3809 59.9148 34.0859 59.2889 33.46 58.4574 33.1202 57.5722 33.1202 56.2132 33.1202 55.0419 33.9428 54.5322 35.1141 54.3534 35.5165 54.255 35.9635 54.255 36.4374L54.255 38.8068 54.1299 38.8068ZM74.328 61.2134C74.328 66.7748 69.8037 71.299 64.2423 71.299L61.0682 71.299C55.8376 71.299 51.519 67.2934 51.0273 62.188 50.9915 61.8661 50.9826 61.5442 50.9826 61.2134L50.9826 53.2915 50.9826 52.8087 50.9826 51.9325 50.9826 51.4496 50.9826 50.1621C50.9826 49.5005 51.376 48.9372 51.9303 48.6689L53.3162 48.6689C53.4861 48.7494 53.647 48.8567 53.7812 48.9997 54.0941 49.3127 54.264 49.724 54.264 50.1621L54.264 51.4496 54.264 51.9325 54.264 52.8087 54.264 53.2915 54.264 55.4374C54.264 55.7772 54.4607 56.0633 54.7468 56.1974 54.8541 56.251 54.9703 56.2779 55.0955 56.2779 55.5604 56.2779 55.927 55.9023 55.927 55.4463L55.927 53.3005 55.927 52.8176 55.927 51.9414 55.927 51.4586 55.927 48.6779 55.927 48.195 55.927 47.3188 55.927 46.836 55.927 42.9913 55.927 42.5085 55.927 41.6322 55.927 41.1494 55.927 40.6397 55.927 40.1569 55.927 39.2807 55.927 38.7979 55.927 37.3136 55.927 36.4285C55.927 35.5254 56.6602 34.7833 57.5722 34.7833 58.0103 34.7833 58.4216 34.9532 58.7346 35.2661 59.0475 35.579 59.2174 35.9903 59.2174 36.4285L59.2174 38.7979 59.2174 39.2807 59.2174 40.1569 59.2174 40.6397 59.2174 41.1494 59.2174 41.6322 59.2174 42.5085 59.2174 42.9913 59.2174 46.836 59.2174 47.3188 59.2174 48.195 59.2174 48.6779 59.2174 51.4586 59.2174 51.9414 59.2174 52.8176 59.2174 53.3005 59.2174 55.4463C59.2174 55.9113 59.5929 56.2779 60.0489 56.2779L60.1294 56.2779C60.5943 56.2779 60.9609 55.9023 60.9609 55.4463L60.9609 53.3005 60.9609 52.8176 60.9609 51.9414 60.9609 51.4586 60.9609 48.6779 60.9609 48.195 60.9609 47.3188 60.9609 46.836 60.9609 46.5141C60.9609 45.611 61.6941 44.8689 62.6061 44.8689 63.0442 44.8689 63.4555 45.0388 63.7684 45.3517 64.0814 45.6647 64.2513 46.076 64.2513 46.5141L64.2513 46.836 64.2513 47.3188 64.2513 48.195 64.2513 48.6779 64.2513 51.4586 64.2513 51.9414 64.2513 52.8176 64.2513 53.3005 64.2513 55.4463C64.2513 55.9113 64.6268 56.2779 65.0828 56.2779L65.1633 56.2779C65.6282 56.2779 65.9948 55.9023 65.9948 55.4463L65.9948 53.3005 65.9948 52.8176 65.9948 51.9414 65.9948 51.4586 65.9948 48.4365 65.9948 48.3381C65.9948 48.1772 66.0216 48.0162 66.0574 47.8732 66.0663 47.8553 66.0753 47.8285 66.0753 47.8106 66.2451 47.3188 66.6386 46.9254 67.1393 46.7734 67.2913 46.7287 67.4612 46.7019 67.631 46.7019 67.6579 46.7019 67.6847 46.7019 67.7026 46.7019 68.1139 46.7197 68.4983 46.8896 68.7844 47.1847 69.0974 47.4976 69.2673 47.9089 69.2673 48.347L69.2673 51.4675 69.2673 51.9503 69.2673 52.8266 69.2673 53.3094 69.2673 55.4553C69.2673 55.9202 69.6428 56.2868 70.0988 56.2868L70.1793 56.2868C70.6442 56.2868 71.0108 55.9113 71.0108 55.4553L71.0108 52.9786 71.0108 52.46 71.0108 51.5033 71.0108 50.9579 71.0108 50.1532C71.0108 49.867 71.0823 49.5988 71.2164 49.3574 71.4936 48.8477 72.039 48.508 72.656 48.508 72.7364 48.508 72.808 48.5169 72.8884 48.5259 73.0494 48.5527 73.2014 48.5974 73.3534 48.66 73.5233 48.7405 73.6842 48.8477 73.8183 48.9908 73.9167 49.0892 73.9972 49.1964 74.0687 49.3127 74.1939 49.5273 74.2743 49.7687 74.2922 50.019 74.2922 50.0637 74.3011 50.1085 74.3011 50.1532L74.328 61.2134Z"/></g></svg>